<?xml version="1.0" encoding="UTF-8" standalone="no"?>
<!DOCTYPE svg PUBLIC "-//W3C//DTD SVG 20010904//EN"
              "http://www.w3.org/TR/2001/REC-SVG-20010904/DTD/svg10.dtd">

<svg xmlns="http://www.w3.org/2000/svg"
     width="3.2in" height="1.8in"
     viewBox="0 0 960 540">
  <path id="Garlands copy"
        fill="none" stroke="black" stroke-width="1"
        d="M 15.33,273.33
           C 137.41,233.19 393.63,335.12 389.33,328.00
             389.33,328.00 426.67,341.33 426.67,341.33
             426.67,341.33 441.33,348.00 441.33,348.00
             441.33,348.00 441.33,357.33 441.33,357.33
             441.33,357.33 430.00,365.33 430.00,365.33
             430.00,365.33 389.33,388.67 389.33,388.67
             389.33,388.67 64.67,478.67 21.33,442.67
             -25.94,347.56 -1.33,294.00 15.33,273.33 Z
           M 939.67,434.67
           C 835.00,508.00 546.24,399.06 542.00,392.00
             542.00,392.00 454.67,359.33 454.67,359.33
             454.67,359.33 452.67,348.67 452.67,348.67
             452.67,348.67 489.33,337.33 489.33,337.33
             489.33,337.33 527.00,320.00 527.00,320.00
             527.00,320.00 560.00,307.00 560.00,307.00
             560.00,307.00 867.00,222.00 934.33,299.33
             955.09,301.05 978.03,437.84 939.67,434.67 Z" />
</svg>
